# Exported from PrimitivesPro, Unity3D asset
# http://u3d.as/4gQ
--------------------------------------------

mtllib Diffuse.mtl
g BoxPro
v -0.7142857 -0.5 -0.7142857
v -0.7142857 -0.5 0.7142857
v 2.857143 -0.5 -0.7142857
v 2.857143 -0.5 0.7142857
v -0.7142857 0.5 0.7142857
v -0.7142857 0.5 -0.7142857
v 0.7142857 0.5 0.7142857
v 0.7142857 0.5 -0.7142857
v -0.7142857 -0.5 0.7142857
v -0.7142857 0.5 0.7142857
v 2.857143 -0.5 0.7142857
v 0.7142857 0.5 0.7142857
v 2.857143 -0.5 -0.7142857
v 0.7142857 0.5 -0.7142857
v -0.7142857 -0.5 -0.7142857
v -0.7142857 0.5 -0.7142857
v -0.7142857 -0.5 -0.7142857
v -0.7142857 0.5 -0.7142857
v -0.7142857 -0.5 0.7142857
v -0.7142857 0.5 0.7142857
v 2.857143 -0.5 0.7142857
v 0.7142857 0.5 0.7142857
v 2.857143 -0.5 -0.7142857
v 0.7142857 0.5 -0.7142857

vn 0 -1 0
vn 0 -1 0
vn 0 -1 0
vn 0 -1 0
vn 0 1 0
vn 0 1 0
vn 0 1 0
vn 0 1 0
vn 0 0 0.9999999
vn 0 0 1
vn 0 0 1
vn 0 0 1
vn 0 0 -0.9999999
vn 0 0 -1
vn 0 0 -1
vn 0 0 -1
vn -1 0 0
vn -1 0 0
vn -1 0 0
vn -1 0 0
vn 0.4228855 0.9061831 0
vn 0.4228855 0.9061831 0
vn 0.4228855 0.9061831 0
vn 0.4228855 0.9061831 0

vt 0 0
vt 1 0
vt 0 1
vt 1 1
vt 0 0
vt 1 0
vt 0 1
vt 1 1
vt 0 0
vt 1 0
vt 0 1
vt 1 1
vt 0 0
vt 1 0
vt 0 1
vt 1 1
vt 0 0
vt 1 0
vt 0 1
vt 1 1
vt 0 0
vt 1 0
vt 0 1
vt 1 1

usemtl default
f 1/1/1 3/3/3 2/2/2
f 3/3/3 4/4/4 2/2/2
f 5/5/5 7/7/7 6/6/6
f 7/7/7 8/8/8 6/6/6
f 9/9/9 11/11/11 10/10/10
f 11/11/11 12/12/12 10/10/10
f 13/13/13 15/15/15 14/14/14
f 15/15/15 16/16/16 14/14/14
f 17/17/17 19/19/19 18/18/18
f 19/19/19 20/20/20 18/18/18
f 21/21/21 23/23/23 22/22/22
f 23/23/23 24/24/24 22/22/22
